solid OpenSCAD_Model
  facet normal -1 0 0
    outer loop
      vertex -50 0 0
      vertex -50 0 500
      vertex -50 1000 0
    endloop
  endfacet
  facet normal -1 0 0
    outer loop
      vertex -50 0 500
      vertex -50 1000 500
      vertex -50 1000 0
    endloop
  endfacet
  facet normal 1 0 0
    outer loop
      vertex 50 1000 0
      vertex 50 0 500
      vertex 50 0 0
    endloop
  endfacet
  facet normal 1 0 -0
    outer loop
      vertex 50 1000 0
      vertex 50 1000 500
      vertex 50 0 500
    endloop
  endfacet
  facet normal 0 -1 0
    outer loop
      vertex -50 0 0
      vertex 50 0 500
      vertex -50 0 500
    endloop
  endfacet
  facet normal 0 -1 0
    outer loop
      vertex -50 0 0
      vertex 50 0 0
      vertex 50 0 500
    endloop
  endfacet
  facet normal 0 0 -1
    outer loop
      vertex -50 1000 0
      vertex 50 0 0
      vertex -50 0 0
    endloop
  endfacet
  facet normal 0 0 -1
    outer loop
      vertex -50 1000 0
      vertex 50 1000 0
      vertex 50 0 0
    endloop
  endfacet
  facet normal 0 1 0
    outer loop
      vertex -50 1000 500
      vertex 50 1000 0
      vertex -50 1000 0
    endloop
  endfacet
  facet normal -0 1 0
    outer loop
      vertex -50 1000 500
      vertex 50 1000 500
      vertex 50 1000 0
    endloop
  endfacet
  facet normal 0 0 1
    outer loop
      vertex -50 0 500
      vertex 50 1000 500
      vertex -50 1000 500
    endloop
  endfacet
  facet normal 0 0 1
    outer loop
      vertex -50 0 500
      vertex 50 0 500
      vertex 50 1000 500
    endloop
  endfacet
endsolid OpenSCAD_Model
