solid OpenSCAD_Model
  facet normal -1 0 0
    outer loop
      vertex -20 0 2000
      vertex -20 960 1960
      vertex -20 40 1960
    endloop
  endfacet
  facet normal -1 0 -0
    outer loop
      vertex -20 1000 2000
      vertex -20 1000 500
      vertex -20 960 1960
    endloop
  endfacet
  facet normal -1 0 -0
    outer loop
      vertex -20 960 540
      vertex -20 1000 500
      vertex -20 0 500
    endloop
  endfacet
  facet normal -1 0 0
    outer loop
      vertex -20 0 2000
      vertex -20 40 540
      vertex -20 0 500
    endloop
  endfacet
  facet normal -1 0 -0
    outer loop
      vertex -20 40 540
      vertex -20 960 540
      vertex -20 0 500
    endloop
  endfacet
  facet normal -1 0 0
    outer loop
      vertex -20 0 2000
      vertex -20 40 1960
      vertex -20 40 540
    endloop
  endfacet
  facet normal -1 0 0
    outer loop
      vertex -20 0 2000
      vertex -20 1000 2000
      vertex -20 960 1960
    endloop
  endfacet
  facet normal -1 0 0
    outer loop
      vertex -20 960 1960
      vertex -20 1000 500
      vertex -20 960 540
    endloop
  endfacet
  facet normal 1 0 -0
    outer loop
      vertex 20 40 1960
      vertex 20 960 1960
      vertex 20 0 2000
    endloop
  endfacet
  facet normal 1 -0 0
    outer loop
      vertex 20 960 1960
      vertex 20 1000 500
      vertex 20 1000 2000
    endloop
  endfacet
  facet normal 1 0 0
    outer loop
      vertex 20 0 500
      vertex 20 1000 500
      vertex 20 960 540
    endloop
  endfacet
  facet normal 1 0 0
    outer loop
      vertex 20 0 500
      vertex 20 40 540
      vertex 20 0 2000
    endloop
  endfacet
  facet normal 1 0 0
    outer loop
      vertex 20 0 500
      vertex 20 960 540
      vertex 20 40 540
    endloop
  endfacet
  facet normal 1 0 -0
    outer loop
      vertex 20 40 540
      vertex 20 40 1960
      vertex 20 0 2000
    endloop
  endfacet
  facet normal 1 0 -0
    outer loop
      vertex 20 960 1960
      vertex 20 1000 2000
      vertex 20 0 2000
    endloop
  endfacet
  facet normal 1 -0 0
    outer loop
      vertex 20 960 540
      vertex 20 1000 500
      vertex 20 960 1960
    endloop
  endfacet
  facet normal 0 0 1
    outer loop
      vertex -20 0 2000
      vertex 20 1000 2000
      vertex -20 1000 2000
    endloop
  endfacet
  facet normal 0 0 1
    outer loop
      vertex -20 0 2000
      vertex 20 0 2000
      vertex 20 1000 2000
    endloop
  endfacet
  facet normal 0 -1 0
    outer loop
      vertex -20 0 500
      vertex 20 0 2000
      vertex -20 0 2000
    endloop
  endfacet
  facet normal 0 -1 0
    outer loop
      vertex -20 0 500
      vertex 20 0 500
      vertex 20 0 2000
    endloop
  endfacet
  facet normal 0 0 -1
    outer loop
      vertex -20 1000 500
      vertex 20 0 500
      vertex -20 0 500
    endloop
  endfacet
  facet normal 0 0 -1
    outer loop
      vertex -20 1000 500
      vertex 20 1000 500
      vertex 20 0 500
    endloop
  endfacet
  facet normal 0 1 0
    outer loop
      vertex -20 1000 2000
      vertex 20 1000 500
      vertex -20 1000 500
    endloop
  endfacet
  facet normal -0 1 0
    outer loop
      vertex -20 1000 2000
      vertex 20 1000 2000
      vertex 20 1000 500
    endloop
  endfacet
  facet normal -0 1 0
    outer loop
      vertex -20 40 1960
      vertex 20 40 1960
      vertex -20 40 540
    endloop
  endfacet
  facet normal 0 1 -0
    outer loop
      vertex 20 40 540
      vertex -20 40 540
      vertex 20 40 1960
    endloop
  endfacet
  facet normal 0 0 -1
    outer loop
      vertex -20 960 1960
      vertex 20 960 1960
      vertex -20 40 1960
    endloop
  endfacet
  facet normal 0 0 -1
    outer loop
      vertex 20 40 1960
      vertex -20 40 1960
      vertex 20 960 1960
    endloop
  endfacet
  facet normal 0 -1 0
    outer loop
      vertex -20 960 540
      vertex 20 960 540
      vertex -20 960 1960
    endloop
  endfacet
  facet normal -0 -1 -0
    outer loop
      vertex 20 960 1960
      vertex -20 960 1960
      vertex 20 960 540
    endloop
  endfacet
  facet normal 0 0 1
    outer loop
      vertex -20 40 540
      vertex 20 40 540
      vertex -20 960 540
    endloop
  endfacet
  facet normal 0 0 1
    outer loop
      vertex 20 960 540
      vertex -20 960 540
      vertex 20 40 540
    endloop
  endfacet
endsolid OpenSCAD_Model
