solid OpenSCAD_Model
  facet normal -1 0 0
    outer loop
      vertex -75 850 0
      vertex -75 850 1450
      vertex -75 900 0
    endloop
  endfacet
  facet normal -1 0 0
    outer loop
      vertex -75 900 0
      vertex -75 850 1450
      vertex -75 900 1500
    endloop
  endfacet
  facet normal -1 0 0
    outer loop
      vertex -75 100 0
      vertex -75 100 1500
      vertex -75 150 1450
    endloop
  endfacet
  facet normal -1 -0 0
    outer loop
      vertex -75 900 1500
      vertex -75 850 1450
      vertex -75 100 1500
    endloop
  endfacet
  facet normal -1 0 0
    outer loop
      vertex -75 850 1450
      vertex -75 150 1450
      vertex -75 100 1500
    endloop
  endfacet
  facet normal -1 0 -0
    outer loop
      vertex -75 150 1450
      vertex -75 150 0
      vertex -75 100 0
    endloop
  endfacet
  facet normal 1 0 0
    outer loop
      vertex 75 900 0
      vertex 75 850 1450
      vertex 75 850 0
    endloop
  endfacet
  facet normal 1 0 0
    outer loop
      vertex 75 900 1500
      vertex 75 850 1450
      vertex 75 900 0
    endloop
  endfacet
  facet normal 1 0 0
    outer loop
      vertex 75 150 1450
      vertex 75 100 1500
      vertex 75 100 0
    endloop
  endfacet
  facet normal 1 -0 0
    outer loop
      vertex 75 100 1500
      vertex 75 850 1450
      vertex 75 900 1500
    endloop
  endfacet
  facet normal 1 0 0
    outer loop
      vertex 75 100 1500
      vertex 75 150 1450
      vertex 75 850 1450
    endloop
  endfacet
  facet normal 1 0 0
    outer loop
      vertex 75 100 0
      vertex 75 150 0
      vertex 75 150 1450
    endloop
  endfacet
  facet normal 0 -1 0
    outer loop
      vertex -75 850 0
      vertex 75 850 1450
      vertex -75 850 1450
    endloop
  endfacet
  facet normal 0 -1 0
    outer loop
      vertex -75 850 0
      vertex 75 850 0
      vertex 75 850 1450
    endloop
  endfacet
  facet normal 0 0 -1
    outer loop
      vertex -75 900 0
      vertex 75 850 0
      vertex -75 850 0
    endloop
  endfacet
  facet normal 0 0 -1
    outer loop
      vertex -75 900 0
      vertex 75 900 0
      vertex 75 850 0
    endloop
  endfacet
  facet normal 0 1 0
    outer loop
      vertex -75 900 1500
      vertex 75 900 0
      vertex -75 900 0
    endloop
  endfacet
  facet normal -0 1 0
    outer loop
      vertex -75 900 1500
      vertex 75 900 1500
      vertex 75 900 0
    endloop
  endfacet
  facet normal 0 0 1
    outer loop
      vertex -75 100 1500
      vertex 75 900 1500
      vertex -75 900 1500
    endloop
  endfacet
  facet normal 0 0 1
    outer loop
      vertex -75 100 1500
      vertex 75 100 1500
      vertex 75 900 1500
    endloop
  endfacet
  facet normal 0 -1 0
    outer loop
      vertex -75 100 0
      vertex 75 100 1500
      vertex -75 100 1500
    endloop
  endfacet
  facet normal 0 -1 0
    outer loop
      vertex -75 100 0
      vertex 75 100 0
      vertex 75 100 1500
    endloop
  endfacet
  facet normal 0 0 -1
    outer loop
      vertex -75 150 0
      vertex 75 100 0
      vertex -75 100 0
    endloop
  endfacet
  facet normal 0 0 -1
    outer loop
      vertex -75 150 0
      vertex 75 150 0
      vertex 75 100 0
    endloop
  endfacet
  facet normal 0 1 0
    outer loop
      vertex -75 150 1450
      vertex 75 150 0
      vertex -75 150 0
    endloop
  endfacet
  facet normal -0 1 0
    outer loop
      vertex -75 150 1450
      vertex 75 150 1450
      vertex 75 150 0
    endloop
  endfacet
  facet normal 0 0 -1
    outer loop
      vertex -75 850 1450
      vertex 75 150 1450
      vertex -75 150 1450
    endloop
  endfacet
  facet normal 0 0 -1
    outer loop
      vertex -75 850 1450
      vertex 75 850 1450
      vertex 75 150 1450
    endloop
  endfacet
endsolid OpenSCAD_Model
