solid OpenSCAD_Model
  facet normal 0 1 0
    outer loop
      vertex 50 1500 200
      vertex -50 1500 100
      vertex -50 1500 200
    endloop
  endfacet
  facet normal 0 1 -0
    outer loop
      vertex 50 1500 0
      vertex -50 1500 100
      vertex 50 1500 200
    endloop
  endfacet
  facet normal 0 1 0
    outer loop
      vertex -1500 1500 0
      vertex -50 1500 100
      vertex 50 1500 0
    endloop
  endfacet
  facet normal 0 1 0
    outer loop
      vertex -50 1500 100
      vertex -1500 1500 0
      vertex -1500 1500 100
    endloop
  endfacet
  facet normal -0 0 1
    outer loop
      vertex -50 1500 200
      vertex 50 0 200
      vertex 50 1500 200
    endloop
  endfacet
  facet normal 0 0 1
    outer loop
      vertex 50 0 200
      vertex -50 1500 200
      vertex -50 0 200
    endloop
  endfacet
  facet normal -0 0 1
    outer loop
      vertex -1500 1500 100
      vertex -50 0 100
      vertex -50 1500 100
    endloop
  endfacet
  facet normal 0 0 1
    outer loop
      vertex -50 0 100
      vertex -1500 1500 100
      vertex -1500 0 100
    endloop
  endfacet
  facet normal 0 -1 0
    outer loop
      vertex -1500 0 100
      vertex -1500 0 0
      vertex -50 0 100
    endloop
  endfacet
  facet normal 0 -1 0
    outer loop
      vertex -50 0 100
      vertex 50 0 200
      vertex -50 0 200
    endloop
  endfacet
  facet normal 0 -1 0
    outer loop
      vertex -50 0 100
      vertex 50 0 0
      vertex 50 0 200
    endloop
  endfacet
  facet normal 0 -1 0
    outer loop
      vertex 50 0 0
      vertex -50 0 100
      vertex -1500 0 0
    endloop
  endfacet
  facet normal -1 0 0
    outer loop
      vertex -50 0 100
      vertex -50 1500 200
      vertex -50 1500 100
    endloop
  endfacet
  facet normal -1 -0 0
    outer loop
      vertex -50 1500 200
      vertex -50 0 100
      vertex -50 0 200
    endloop
  endfacet
  facet normal 1 -0 0
    outer loop
      vertex 50 0 200
      vertex 50 1500 0
      vertex 50 1500 200
    endloop
  endfacet
  facet normal 1 0 0
    outer loop
      vertex 50 1500 0
      vertex 50 0 200
      vertex 50 0 0
    endloop
  endfacet
  facet normal 0 0 -1
    outer loop
      vertex -1500 0 0
      vertex 50 1500 0
      vertex 50 0 0
    endloop
  endfacet
  facet normal -0 0 -1
    outer loop
      vertex 50 1500 0
      vertex -1500 0 0
      vertex -1500 1500 0
    endloop
  endfacet
  facet normal -1 0 0
    outer loop
      vertex -1500 0 0
      vertex -1500 1500 100
      vertex -1500 1500 0
    endloop
  endfacet
  facet normal -1 -0 0
    outer loop
      vertex -1500 1500 100
      vertex -1500 0 0
      vertex -1500 0 100
    endloop
  endfacet
endsolid OpenSCAD_Model
