solid OpenSCAD_Model
  facet normal 1 -0 0
    outer loop
      vertex 50 -50 2500
      vertex 50 1500 0
      vertex 50 1500 2500
    endloop
  endfacet
  facet normal 1 0 0
    outer loop
      vertex 50 1500 0
      vertex 50 -50 2500
      vertex 50 -50 0
    endloop
  endfacet
  facet normal 0 0 1
    outer loop
      vertex -50 50 2500
      vertex 50 1500 2500
      vertex -50 1500 2500
    endloop
  endfacet
  facet normal 0 0 1
    outer loop
      vertex 50 1500 2500
      vertex -50 50 2500
      vertex 50 -50 2500
    endloop
  endfacet
  facet normal 0 0 1
    outer loop
      vertex -1500 -50 2500
      vertex -50 50 2500
      vertex -1500 50 2500
    endloop
  endfacet
  facet normal 0 0 1
    outer loop
      vertex -50 50 2500
      vertex -1500 -50 2500
      vertex 50 -50 2500
    endloop
  endfacet
  facet normal 0 0 -1
    outer loop
      vertex 50 -50 0
      vertex -50 50 0
      vertex 50 1500 0
    endloop
  endfacet
  facet normal 0 0 -1
    outer loop
      vertex -1500 -50 0
      vertex -50 50 0
      vertex 50 -50 0
    endloop
  endfacet
  facet normal -0 0 -1
    outer loop
      vertex -50 50 0
      vertex -1500 -50 0
      vertex -1500 50 0
    endloop
  endfacet
  facet normal -0 0 -1
    outer loop
      vertex 50 1500 0
      vertex -50 50 0
      vertex -50 1500 0
    endloop
  endfacet
  facet normal -1 0 0
    outer loop
      vertex -50 50 0
      vertex -50 1500 2500
      vertex -50 1500 0
    endloop
  endfacet
  facet normal -1 -0 0
    outer loop
      vertex -50 1500 2500
      vertex -50 50 0
      vertex -50 50 2500
    endloop
  endfacet
  facet normal 0 1 -0
    outer loop
      vertex 50 1500 0
      vertex -50 1500 2500
      vertex 50 1500 2500
    endloop
  endfacet
  facet normal 0 1 0
    outer loop
      vertex -50 1500 2500
      vertex 50 1500 0
      vertex -50 1500 0
    endloop
  endfacet
  facet normal 0 1 -0
    outer loop
      vertex -50 50 0
      vertex -1500 50 2500
      vertex -50 50 2500
    endloop
  endfacet
  facet normal 0 1 0
    outer loop
      vertex -1500 50 2500
      vertex -50 50 0
      vertex -1500 50 0
    endloop
  endfacet
  facet normal 0 -1 0
    outer loop
      vertex -1500 -50 0
      vertex 50 -50 2500
      vertex -1500 -50 2500
    endloop
  endfacet
  facet normal 0 -1 -0
    outer loop
      vertex 50 -50 2500
      vertex -1500 -50 0
      vertex 50 -50 0
    endloop
  endfacet
  facet normal -1 0 0
    outer loop
      vertex -1500 -50 0
      vertex -1500 50 2500
      vertex -1500 50 0
    endloop
  endfacet
  facet normal -1 -0 0
    outer loop
      vertex -1500 50 2500
      vertex -1500 -50 0
      vertex -1500 -50 2500
    endloop
  endfacet
endsolid OpenSCAD_Model
