# Blender 4.1.1
# www.blender.org
mtllib commercial-window-frame_straight_2x1.mtl
o commercial-window-frame_straight_1x1
v -0.020000 2.000000 0.000000
v -0.020000 1.960000 -1.960000
v -0.020000 1.960000 -0.040000
v -0.020000 2.000000 -2.000000
v -0.020000 0.500000 -2.000000
v -0.020000 0.540000 -1.960000
v -0.020000 0.500000 0.000000
v -0.020000 0.540000 -0.040000
v 0.020000 1.960000 -0.040000
v 0.020000 1.960000 -1.960000
v 0.020000 2.000000 0.000000
v 0.020000 0.500000 -2.000000
v 0.020000 2.000000 -2.000000
v 0.020000 0.500000 0.000000
v 0.020000 0.540000 -1.960000
v 0.020000 0.540000 -0.040000
vn -1.0000 -0.0000 -0.0000
vn -0.0000 1.0000 -0.0000
vn 1.0000 -0.0000 -0.0000
vn -0.0000 -1.0000 -0.0000
vn -0.0000 -0.0000 -1.0000
vn -0.0000 -0.0000 1.0000
vt 1.460001 0.040000
vt -0.459999 0.040000
vt -0.499999 0.000000
vt 1.500001 0.000000
vt 1.500000 1.553316
vt -0.500000 1.553262
vt -0.459998 1.513265
vt 1.460002 1.513313
vt -0.499999 0.040000
vt 1.500000 0.000000
vt 1.500000 0.040000
vt 1.000000 1.553289
vt 0.958587 1.511868
vt 0.958587 0.041421
vt 1.000000 0.000000
vt 1.460000 0.040000
vt -0.460000 0.040000
vt -0.500000 0.000000
vt 1.500000 0.000000
vt 0.041413 0.041421
vt 0.041413 1.511868
vt 0.000000 1.553289
vt 0.000000 0.000000
vt 0.041413 0.041421
vt 0.041413 1.511868
vt 1.500000 0.000000
vt 1.500000 0.040000
vt -0.499999 0.040000
vt -0.499999 0.000000
vt 1.998952 -0.000003
vt 2.038931 -0.000003
vt 2.038931 1.499209
vt 1.998951 1.499209
vt 2.078910 1.499209
vt 2.038931 1.499209
vt 2.078910 -0.000003
vt 1.500000 0.478261
vt 1.500000 0.521739
vt -0.500000 0.521739
vt -0.500000 0.478261
vt 0.046625 1.511868
vt 0.000000 1.511868
vt 0.000000 0.041421
vt 0.046625 0.041421
vt -0.500000 0.521739
vt -0.500000 0.478261
vt 1.500000 0.478261
vt 1.500000 0.521739
vt 0.000000 0.041421
vt 0.028169 0.041421
vt 0.028169 1.511868
vt 0.000000 1.511868
vt 1.460000 1.647471
vt 1.500000 1.687471
vt -0.500000 1.687471
vt -0.460000 1.647471
s 1
usemtl Material.001
f 8/1/1 6/2/1 5/3/1 7/4/1
f 1/5/1 4/6/1 2/7/1 3/8/1
f 1/9/2 11/3/2 13/10/2 4/11/2
f 5/12/1 6/13/1 2/14/1 4/15/1
f 15/16/3 16/17/3 14/18/3 12/19/3
f 16/20/3 9/21/3 11/22/3 14/23/3
f 15/14/3 12/15/3 13/12/3 10/13/3
f 1/23/1 3/24/1 8/25/1 7/22/1
f 5/26/4 12/27/4 14/28/4 7/29/4
f 4/30/5 13/31/5 12/32/5 5/33/5
f 7/34/6 14/35/6 11/31/6 1/36/6
f 15/37/2 6/38/2 8/39/2 16/40/2
f 10/41/6 2/42/6 6/43/6 15/44/6
f 9/45/4 3/46/4 2/47/4 10/48/4
f 16/49/5 8/50/5 3/51/5 9/52/5
f 10/53/3 13/54/3 11/55/3 9/56/3
