# Blender 4.1.1
# www.blender.org
mtllib simple-wall.mtl
o simple-wall
v -0.050000 2.000000 -1.000000
v 0.050000 2.000000 0.000000
v 0.050000 2.000000 -1.000000
v -0.050000 2.000000 0.000000
v -0.050000 0.000000 0.000000
v 0.050000 0.000000 -1.000000
v 0.050000 0.000000 0.000000
v -0.050000 0.000000 -1.000000
vn -1.0000 -0.0000 -0.0000
vn 1.0000 -0.0000 -0.0000
vn -0.0000 1.0000 -0.0000
vn -0.0000 -0.0000 1.0000
vn -0.0000 -0.0000 -1.0000
vn -0.0000 -1.0000 -0.0000
vt 0.000000 1.999349
vt 0.000000 0.000000
vt 1.000000 0.000000
vt 1.000000 1.999349
vt 1.000000 -0.000651
vt 1.000000 1.999349
vt -0.000000 1.999349
vt 0.000000 -0.000651
vt 1.000000 1.999349
vt -0.000000 1.999349
vt -0.000000 1.899349
vt 1.000000 1.899349
vt 0.700000 1.999349
vt 0.600000 1.999349
vt 0.600000 0.000000
vt 0.700000 0.000000
vt 0.800000 1.999349
vt 0.700000 1.999349
vt 0.700000 0.000000
vt 0.800000 0.000000
vt 0.000000 -0.000651
vt 1.000000 -0.000651
vt 1.000000 0.099349
vt 0.000000 0.099349
s 1
usemtl UV_Unwrapper
f 5/1/1 4/2/1 1/3/1 8/4/1
f 2/5/2 7/6/2 6/7/2 3/8/2
f 1/9/3 4/10/3 2/11/3 3/12/3
f 5/13/4 7/14/4 2/15/4 4/16/4
f 6/17/5 8/18/5 1/19/5 3/20/5
f 5/21/6 8/22/6 6/23/6 7/24/6
