# Blender 4.1.1
# www.blender.org
o wall_corner_1x1
v 0.050000 2.000000 0.050000
v 0.050000 0.000000 -1.000000
v 0.050000 2.000000 -1.000000
v 0.050000 0.000000 0.050000
v -0.050000 2.000000 -0.050000
v -0.050000 2.000000 -1.000000
v -1.000000 2.000000 0.050000
v -1.000000 2.000000 -0.050000
v -0.050000 0.000000 -0.050000
v -1.000000 0.000000 0.050000
v -1.000000 0.000000 -0.050000
v -0.050000 0.000000 -1.000000
vn -0.0000 -0.0000 -1.0000
vn -0.0000 -1.0000 -0.0000
vn -0.0000 1.0000 -0.0000
vn -0.0000 -0.0000 1.0000
vn -1.0000 -0.0000 -0.0000
vn 1.0000 -0.0000 -0.0000
vt -0.000000 0.000000
vt 0.100000 0.000000
vt 0.100000 2.000000
vt -0.000000 2.000000
vt 0.904762 0.904762
vt 0.904762 0.000000
vt 1.000000 -0.000000
vt 1.000000 1.000000
vt 0.095238 0.095238
vt 0.000000 0.000000
vt 1.000000 0.000000
vt 1.000000 0.095238
vt -0.000000 1.000000
vt -0.000000 0.904762
vt 0.904762 0.904762
vt 1.000000 0.000000
vt 2.000000 -0.000000
vt 2.000000 2.000000
vt 1.000000 2.000000
vt 0.000391 0.005859
vt 1.000000 0.000000
vt 1.000000 2.000000
vt 0.000391 2.005859
vt 0.100000 0.000000
vt 0.100000 2.000000
vt -0.000000 2.000000
vt 1.000000 -0.000000
vt -0.000000 2.000000
vt -0.000000 0.000000
vt 0.000000 1.000000
vt -0.000000 -0.000000
vt 0.095238 0.095238
vt 0.095238 1.000000
vt 1.000000 0.000000
vt 1.999609 0.000000
vt 1.999610 2.000000
s 1
f 2/1/1 12/2/1 6/3/1 3/4/1
f 9/5/2 12/6/2 2/7/2 4/8/2
f 5/9/3 1/10/3 3/11/3 6/12/3
f 10/13/2 11/14/2 9/15/2 4/8/2
f 9/16/1 11/17/1 8/18/1 5/19/1
f 10/20/4 4/21/4 1/22/4 7/23/4
f 10/24/5 7/25/5 8/26/5 11/1/5
f 9/27/5 5/19/5 6/28/5 12/29/5
f 7/30/3 1/31/3 5/32/3 8/33/3
f 1/22/6 4/34/6 2/35/6 3/36/6
