# Blender 4.1.1
# www.blender.org
mtllib wall_straight_1x1.mtl
o wall_straight_1x1
v -0.050000 2.000000 -1.000000
v 0.050000 2.000000 0.000000
v 0.050000 2.000000 -1.000000
v -0.050000 2.000000 0.000000
v -0.050000 0.000000 0.000000
v 0.050000 0.000000 -1.000000
v 0.050000 0.000000 0.000000
v -0.050000 0.000000 -1.000000
vn -0.0000 -1.0000 -0.0000
vn -0.0000 -0.0000 -1.0000
vn -1.0000 -0.0000 -0.0000
vn -0.0000 1.0000 -0.0000
vn -0.0000 -0.0000 1.0000
vn 1.0000 -0.0000 -0.0000
vt 2.100002 2.000000
vt 2.100002 3.000000
vt 2.000002 3.000000
vt 2.000002 2.000000
vt 2.200002 2.000000
vt 2.100003 2.000000
vt 2.100003 0.000000
vt 2.200003 0.000000
vt 0.000002 2.000000
vt 0.000002 0.000000
vt 1.000002 0.000000
vt 1.000002 2.000000
vt 2.200003 1.000000
vt 2.300003 0.000000
vt 2.300003 1.000000
vt 2.000003 0.000000
vt 2.100003 0.000000
vt 2.000002 0.000000
vt 2.000002 2.000000
s 1
usemtl 
f 5/1/1 8/2/1 6/3/1 7/4/1
f 6/5/2 8/6/2 1/7/2 3/8/2
f 5/9/3 4/10/3 1/11/3 8/12/3
f 1/13/4 4/8/4 2/14/4 3/15/4
f 5/1/5 7/4/5 2/16/5 4/17/5
f 2/18/6 7/19/6 6/12/6 3/11/6
